<?xml version="1.0" encoding="utf-8"?>
<!-- Generator: Adobe Illustrator 19.0.0, SVG Export Plug-In . SVG Version: 6.00 Build 0)  -->
<svg version="1.1" id="Layer_1" xmlns="http://www.w3.org/2000/svg" xmlns:xlink="http://www.w3.org/1999/xlink" x="0px" y="0px"
	 viewBox="0 0 512 512" style="enable-background:new 0 0 512 512;" xml:space="preserve">
<style type="text/css">
	.st0{fill:#231F20;}
	.st1{fill:none;stroke:#231F20;stroke-width:4;stroke-linecap:round;stroke-miterlimit:10;}
</style>
<g id="XMLID_22_">
	<g id="XMLID_65_">
		<path id="XMLID_10_" class="st0" d="M187.6,436.1c-2.7,0-4.9-2.2-4.9-4.9V198.4l57.5-35.7v-51.6c0-2.7,2.2-4.9,4.9-4.9
			s4.9,2.2,4.9,4.9v57l-57.5,35.7v227.4C192.5,433.9,190.3,436.1,187.6,436.1z"/>
	</g>
	<g id="XMLID_63_">
		<path id="XMLID_9_" class="st0" d="M219.5,318.6c-1.6,0-3.2-0.8-4.1-2.3c-1.4-2.3-0.7-5.3,1.6-6.7L324.7,243v-39.2l-57.5-35.7
			V70.6h-22c-2.7,0-4.9-2.2-4.9-4.9c0-2.7,2.2-4.9,4.9-4.9h31.8v101.8l57.5,35.7v50l-112.3,69.5
			C221.3,318.4,220.4,318.6,219.5,318.6z"/>
	</g>
	<g id="XMLID_61_">
		<path id="XMLID_8_" class="st0" d="M187.6,467.7c-1.6,0-3.1-0.8-4.1-2.2c-1.5-2.2-0.8-5.3,1.4-6.7l139.8-91.6l0.4-66.8l-17.6-10.9
			c-2.3-1.4-3-4.4-1.6-6.7c1.4-2.3,4.4-3,6.7-1.6l19.9,12.3c1.4,0.9,2.3,2.5,2.3,4.2l-0.5,72.1c0,1.6-0.8,3.1-2.2,4l-142,93
			C189.5,467.4,188.5,467.7,187.6,467.7z"/>
	</g>
	<g id="XMLID_59_">
		<circle id="XMLID_21_" class="st0" cx="245.1" cy="106.3" r="12.2"/>
	</g>
	<g id="XMLID_57_">
		<circle id="XMLID_20_" class="st0" cx="307.9" cy="285.3" r="12.2"/>
	</g>
	<g id="XMLID_55_">
		<circle id="XMLID_19_" class="st0" cx="219.5" cy="313.7" r="12.2"/>
	</g>
	<g id="XMLID_53_">
		<circle id="XMLID_18_" class="st0" cx="187.6" cy="462.8" r="12.2"/>
	</g>
	<g id="XMLID_51_">
		<path id="XMLID_7_" class="st0" d="M358.1,504.2H254.4c-2.7,0-4.9-2.2-4.9-4.9s2.2-4.9,4.9-4.9h94V190l-57.5-35.7V59.3h18.6V43.5
			H233c-2.7,0-4.9-2.2-4.9-4.9s2.2-4.9,4.9-4.9h86.2V69h-18.6V149l57.5,35.7V504.2z"/>
	</g>
	<g id="XMLID_49_">
		<path id="XMLID_6_" class="st0" d="M191.8,504.2h-34.7V184.6l57.5-35.7V69H196V7.8h113.4c2.7,0,4.9,2.2,4.9,4.9s-2.2,4.9-4.9,4.9
			H205.8v41.7h18.6v95.1L166.9,190v304.4h22l128.9-84.8c2.2-1.5,5.3-0.9,6.7,1.4c1.5,2.2,0.9,5.3-1.4,6.7L191.8,504.2z"/>
	</g>
	<g id="XMLID_47_">
		<circle id="XMLID_17_" class="st0" cx="320" cy="413.7" r="12.2"/>
	</g>
	<g id="XMLID_45_">
		<circle id="XMLID_16_" class="st0" cx="254.4" cy="499.3" r="12.2"/>
	</g>
	<g id="XMLID_43_">
		<circle id="XMLID_15_" class="st0" cx="233" cy="38.6" r="12.2"/>
	</g>
	<g id="XMLID_41_">
		<circle id="XMLID_14_" class="st0" cx="307.9" cy="12.7" r="12.2"/>
	</g>
	<g id="XMLID_39_">
		<path id="XMLID_5_" class="st0" d="M211.5,294.8v-84l44.7-28.4c2.3-1.4,5.3-0.8,6.7,1.5c1.4,2.3,0.8,5.3-1.5,6.7l-40.2,25.5v60.6
			l45-29.7c2.2-1.5,5.3-0.9,6.7,1.4c1.5,2.2,0.9,5.3-1.4,6.7L211.5,294.8z"/>
	</g>
	<g id="XMLID_37_">
		<path id="XMLID_4_" class="st0" d="M295.7,245.1c-2.7,0-4.9-2.2-4.9-4.9v-28.1l-34.6-21.4c-2.3-1.4-3-4.4-1.6-6.7
			c1.4-2.3,4.4-3,6.7-1.6l39.2,24.3v33.5C300.6,242.9,298.4,245.1,295.7,245.1z"/>
	</g>
	<g id="XMLID_35_">
		<path id="XMLID_13_" class="st1" d="M252.3,202.8"/>
	</g>
	<g id="XMLID_33_">
		<circle id="XMLID_12_" class="st0" cx="271.4" cy="249.9" r="12.2"/>
	</g>
	<g id="XMLID_31_">
		<path id="XMLID_3_" class="st0" d="M211.5,420.3v-67l38.1-24.2c2.3-1.4,5.3-0.8,6.7,1.5c1.4,2.3,0.8,5.3-1.5,6.7l-33.6,21.3v43.6
			l79.4-52.2v-18.2l-22.4-13.9c-2.3-1.4-3-4.4-1.6-6.7c1.4-2.3,4.4-3,6.7-1.6l27,16.8v28.9L211.5,420.3z"/>
	</g>
	<g id="XMLID_29_">
		<circle id="XMLID_11_" class="st0" cx="252.3" cy="335.9" r="12.2"/>
	</g>
	<g id="XMLID_27_">
		<path id="XMLID_2_" class="st0" d="M290.2,477.9c-1.6,0-3.1-0.8-4.1-2.2c-1.5-2.2-0.9-5.3,1.4-6.7l42-27.6
			c2.2-1.5,5.3-0.9,6.7,1.4c1.5,2.2,0.9,5.3-1.4,6.7l-42,27.6C292,477.6,291.1,477.9,290.2,477.9z"/>
	</g>
	<g id="XMLID_25_">
		<circle id="XMLID_1_" class="st0" cx="290.2" cy="473" r="12.2"/>
	</g>
</g>
</svg>
